<svg width="19" height="19" viewBox="0 0 19 19" fill="none" xmlns="http://www.w3.org/2000/svg">
<path fill-rule="evenodd" clip-rule="evenodd" d="M12.6072 11.0099L18.75 17.1527L17.1527 18.75L11.0099 12.6072C9.86278 13.4327 8.47985 13.9365 6.96827 13.9365C3.11964 13.9365 0 10.8169 0 6.96827C0 3.11964 3.11964 0 6.96827 0C10.8169 0 13.9365 3.11964 13.9365 6.96827C13.9365 8.47985 13.4327 9.86278 12.6072 11.0099ZM6.96827 2.14408C4.29889 2.14408 2.14408 4.29889 2.14408 6.96827C2.14408 9.63765 4.29889 11.7925 6.96827 11.7925C9.63765 11.7925 11.7925 9.63765 11.7925 6.96827C11.7925 4.29889 9.63765 2.14408 6.96827 2.14408Z" fill="white"/>
</svg>
